<?xml version="1.0" encoding="utf-8"?>
<!-- Made by  Sergey Minkin -->
<svg width="90px" height="90px" viewBox="0 -2.67 41.34 41.34" xmlns="http://www.w3.org/2000/svg">
  <g id="Group_1" data-name="Group 1" transform="translate(-165 -125)">
    <path id="Path_1" data-name="Path 1" d="M203,137h-4v-7a2,2,0,0,0-4,0v7h-7l-2.5-10.1A2.672,2.672,0,0,0,183,125H171a2.006,2.006,0,0,0-2,2v10a4.122,4.122,0,0,0-4,4.2V152h0a9.024,9.024,0,0,0,18,.9h8.4a6.537,6.537,0,0,0-.4,2.1,6,6,0,0,0,12,0,5.779,5.779,0,0,0-1-3.2,5.367,5.367,0,0,0,1.6-2.1l2.5-8a3.549,3.549,0,0,0-.3-3.2A3.105,3.105,0,0,0,203,137Zm-21.1-8,2,8H173v-8ZM174,157a5,5,0,1,1,5-5A4.951,4.951,0,0,1,174,157Zm23,0a2,2,0,1,1,2-2A2.006,2.006,0,0,1,197,157Zm2.9-8.7a1.272,1.272,0,0,1-.9.7H182.5a9.006,9.006,0,0,0-8.5-5.9,9.212,9.212,0,0,0-5,1.5V141h33Z" fill="#000000"/>
  </g>
</svg>