<?xml version="1.0" standalone="no"?>
<!DOCTYPE svg PUBLIC "-//W3C//DTD SVG 20010904//EN"
 "http://www.w3.org/TR/2001/REC-SVG-20010904/DTD/svg10.dtd">
<svg version="1.0" xmlns="http://www.w3.org/2000/svg"
 width="90px" height="90px" viewBox="0 0 128.000000 128.000000"
 preserveAspectRatio="xMidYMid meet">

<g transform="translate(0.000000,128.000000) scale(0.100000,-0.100000)"
fill="#000000" stroke="none">
<path d="M476 1264 c-9 -8 -16 -19 -16 -24 0 -13 30 -40 45 -40 7 0 16 -13 20
-29 4 -17 14 -31 27 -34 11 -3 17 -10 13 -16 -4 -7 -50 -11 -120 -11 l-113 0
-47 -140 c-26 -77 -44 -144 -40 -150 11 -18 61 -11 82 13 11 12 33 59 48 105
25 78 29 83 54 80 25 -3 26 -5 29 -80 2 -43 7 -78 12 -78 6 0 10 -20 10 -44
l0 -43 -52 -6 c-60 -7 -94 -34 -108 -86 -6 -20 -28 -159 -50 -309 -57 -394
-76 -372 317 -372 392 0 373 -25 309 402 -24 162 -50 304 -56 315 -19 30 -46
43 -101 50 l-49 6 0 43 c0 24 4 44 10 44 5 0 12 11 16 25 4 18 13 25 30 25 15
0 24 6 24 15 0 12 15 15 78 15 44 0 83 -5 89 -11 8 -8 21 -8 50 1 52 17 63 28
63 61 0 23 -6 32 -27 40 -45 17 -93 23 -93 11 0 -6 -25 -12 -57 -14 -32 -2
-58 -7 -58 -13 0 -5 26 -11 58 -13 86 -5 68 -22 -23 -22 l-80 0 0 40 c0 36 -3
40 -24 40 -18 0 -25 6 -28 23 -3 19 -10 22 -53 25 -56 4 -83 19 -48 28 14 4
24 17 28 35 5 19 13 29 25 29 27 0 44 34 30 60 -10 18 -21 20 -110 20 -76 0
-102 -4 -114 -16z m141 -59 c-14 -45 -43 -44 -62 3 l-14 32 44 0 43 0 -11 -35z
m-162 -134 c3 -6 -14 -11 -37 -13 l-43 -3 -28 -80 c-35 -103 -46 -129 -53
-122 -4 3 11 56 31 116 l37 111 43 0 c24 0 46 -4 50 -9z m225 -15 c0 -19 6
-25 28 -28 23 -3 27 -8 30 -40 3 -34 1 -37 -25 -40 -20 -2 -29 -9 -31 -25 -3
-22 -8 -23 -98 -23 l-94 0 0 83 c0 46 3 87 7 90 3 4 46 7 95 7 87 0 88 0 88
-24z m327 -70 c-7 -21 -37 -19 -37 2 0 15 5 19 20 15 12 -3 19 -11 17 -17z
m-355 -188 l3 -63 45 -3 c69 -4 88 -10 104 -35 8 -12 33 -148 57 -314 l43
-293 -24 -25 -24 -25 -274 2 -275 3 -19 26 c-19 26 -19 27 23 320 53 359 42
339 188 339 62 0 102 4 107 11 9 16 -15 29 -53 29 -32 0 -33 1 -33 45 l0 45
65 0 64 0 3 -62z"/>
<path d="M480 563 c-135 -70 -169 -240 -73 -353 50 -58 104 -83 178 -83 169 0
283 171 214 323 -40 88 -102 131 -199 137 -57 4 -72 1 -120 -24z m219 -46 c49
-33 81 -97 81 -163 0 -84 -5 -85 -122 -17 -56 33 -103 66 -103 73 0 7 8 18 18
24 15 9 22 6 42 -18 18 -23 28 -27 49 -22 31 8 50 40 41 73 -7 31 -29 25 -33
-10 -4 -32 -13 -34 -37 -7 -24 27 -73 26 -102 -1 -24 -23 -22 -25 -38 26 -6
21 -23 19 -30 -6 -5 -16 -10 -18 -20 -9 -29 24 28 72 101 88 52 11 106 0 153
-31z m-218 -141 c-26 -11 -22 -30 7 -34 21 -3 32 -22 12 -22 -17 0 -42 -48
-35 -70 9 -29 35 -25 35 5 0 30 13 32 40 5 23 -23 62 -26 79 -7 13 17 5 27
-24 27 -11 0 -26 5 -33 12 -12 12 -17 58 -7 58 14 0 135 -75 125 -78 -5 -2
-10 -13 -10 -24 0 -13 5 -18 18 -16 9 2 16 11 16 21 -1 13 2 14 17 6 25 -13
24 -21 -4 -47 -97 -91 -259 -55 -312 70 -15 38 -19 96 -9 135 l6 23 50 -27
c46 -25 48 -28 29 -37z"/>
<path d="M665 370 c-8 -13 3 -30 20 -30 20 0 30 21 14 31 -18 11 -26 11 -34
-1z"/>
</g>
</svg>
