<?xml version="1.0" encoding="iso-8859-1"?>
<!-- Generator: Adobe Illustrator 19.0.0, SVG Export Plug-In . SVG Version: 6.00 Build 0)  -->
<!-- License: CC0. Made by SVG Repo: https://www.svgrepo.com/svg/252949/lorry-truck -->
<svg version="1.1" id="Layer_1" xmlns="http://www.w3.org/2000/svg" xmlns:xlink="http://www.w3.org/1999/xlink" x="0px" y="0px"
	 viewBox="0 0 512 512" style="enable-background:new 0 0 512 512;" xml:space="preserve" width="90px">
<g>
	<g>
		<path d="M503.467,140.8h-358.4c-4.719,0-8.533,3.823-8.533,8.533v102.4h-17.067v-76.8c0-4.71-3.814-8.533-8.533-8.533H42.667
			c-3.49,0-6.622,2.125-7.927,5.359L0.606,257.092C0.205,258.108,0,259.183,0,260.267V345.6c0,4.71,3.814,8.533,8.533,8.533h30.345
			C44.8,364.288,55.689,371.2,68.267,371.2c18.825,0,34.133-15.309,34.133-34.133h34.133c0,18.825,15.309,34.133,34.133,34.133
			s34.133-15.309,34.133-34.133h25.6c4.719,0,8.533-3.823,8.533-8.533V268.8H256v59.093c-0.179,2.074,0.393,4.164,1.664,5.862
			c1.604,2.15,4.139,3.422,6.835,3.422h0.009l25.634-0.026c0.043,18.782,15.326,34.048,34.125,34.048
			c18.825,0,34.133-15.309,34.133-34.133h51.2c0,18.825,15.309,34.133,34.133,34.133c18.825,0,34.133-15.309,34.133-34.133h25.6
			c4.719,0,8.533-3.823,8.533-8.533v-68.267V149.333C512,144.623,508.186,140.8,503.467,140.8z M34.79,217.6h33.476v34.133h-47.13
			L34.79,217.6z M68.267,354.133c-9.412,0-17.067-7.654-17.067-17.067c0-9.412,7.654-17.067,17.067-17.067
			c9.412,0,17.067,7.654,17.067,17.067C85.333,346.479,77.679,354.133,68.267,354.133z M170.667,354.133
			c-9.412,0-17.067-7.654-17.067-17.067c0-9.412,7.654-17.067,17.067-17.067c9.412,0,17.067,7.654,17.067,17.067
			C187.733,346.479,180.079,354.133,170.667,354.133z M221.867,285.867h-8.533c-4.719,0-8.533,3.823-8.533,8.533
			c0,4.71,3.814,8.533,8.533,8.533h8.533V320h-21.811c-5.922-10.155-16.802-17.067-29.389-17.067S147.2,309.845,141.278,320H97.647
			c-5.914-10.155-16.802-17.067-29.38-17.067c-18.825,0-34.133,15.309-34.133,34.133H17.067v-34.133H25.6
			c4.719,0,8.533-3.823,8.533-8.533c0-4.71-3.814-8.533-8.533-8.533h-8.533V268.8H76.8c4.719,0,8.533-3.823,8.533-8.533v-51.2
			c0-4.71-3.814-8.533-8.533-8.533H41.617l6.827-17.067H102.4v76.8c0,4.71,3.814,8.533,8.533,8.533h110.933V285.867z
			 M324.267,354.133c-9.412,0-17.067-7.654-17.067-17.067c0-9.412,7.654-17.067,17.067-17.067c9.412,0,17.067,7.654,17.067,17.067
			C341.333,346.479,333.679,354.133,324.267,354.133z M443.733,354.133c-9.412,0-17.067-7.654-17.067-17.067
			c0-9.412,7.654-17.067,17.067-17.067c9.412,0,17.067,7.654,17.067,17.067C460.8,346.479,453.146,354.133,443.733,354.133z
			 M494.933,285.867H486.4c-4.719,0-8.533,3.823-8.533,8.533c0,4.71,3.814,8.533,8.533,8.533h8.533V320h-21.811
			c-5.922-10.155-16.802-17.067-29.389-17.067c-12.587,0-23.467,6.912-29.389,17.067h-60.698
			c-5.922-10.155-16.802-17.067-29.389-17.067c-12.612,0-23.518,6.955-29.432,17.143l-21.76,0.026V268.8h221.867V285.867z
			 M494.933,251.733H153.6v-93.867h341.333V251.733z"/>
	</g>
</g>
</svg>
